<svg fill="#c6f5f2" version="1.1" id="Capa_1" xmlns="http://www.w3.org/2000/svg" xmlns:xlink="http://www.w3.org/1999/xlink"
	 width="800px" height="800px" viewBox="0 0 31.669 31.67"
	 xml:space="preserve">
    <g>
        <g>
            <path d="M7.965,4.084c-0.663,0-1.248,0.433-1.442,1.067L0.066,26.276c-0.14,0.456-0.055,0.952,0.229,1.336
                c0.285,0.385,0.734,0.61,1.212,0.61h2.475c0.678,0,1.272-0.451,1.453-1.104l1.414-5.104h6.913l1.541,5.139
                c0.191,0.639,0.778,1.074,1.444,1.074h2.707c0.479,0,0.93-0.229,1.214-0.611c0.284-0.389,0.368-0.885,0.227-1.344L14.342,5.145
                c-0.196-0.631-0.779-1.061-1.44-1.061H7.965z M7.636,17.914c0,0,1.406-5.354,2.147-8.2c0.049-0.189,0.218-0.321,0.413-0.323
                c0.195-0.002,0.367,0.126,0.42,0.313l2.358,8.21H7.636z"/>
            <path d="M26.996,8.374V4.366c0-0.51-0.413-0.923-0.924-0.923h-1.61c-0.51,0-0.923,0.413-0.923,0.923v4.008h-3.751
                c-0.511,0-0.923,0.413-0.923,0.923v1.483c0,0.51,0.412,0.923,0.923,0.923h3.751v4.007c0,0.51,0.413,0.922,0.923,0.922h1.61
                c0.511,0,0.924-0.413,0.924-0.922v-4.007h3.751c0.51,0,0.923-0.413,0.923-0.923V9.297c0-0.51-0.413-0.923-0.923-0.923H26.996z"/>
        </g>
    </g>
</svg>
