<?xml version="1.0" encoding="utf-8"?><!-- Uploaded to: SVG Repo, www.svgrepo.com, Generator: SVG Repo Mixer Tools -->
<svg width="800px" height="800px" viewBox="0 0 24 24" xmlns="http://www.w3.org/2000/svg">
	<path fill-rule="evenodd" clip-rule="evenodd" d="M14.2788 2.15224C13.9085 2 13.439 2 12.5 2C11.561 2 11.0915 2 10.7212 2.15224C10.2274 2.35523 9.83509 2.74458 9.63056 3.23463C9.53719 3.45834 9.50065 3.7185 9.48635 4.09799C9.46534 4.65568 9.17716 5.17189 8.69017 5.45093C8.20318 5.72996 7.60864 5.71954 7.11149 5.45876C6.77318 5.28130 6.52789 5.18262 6.28599 5.15102C5.75609 5.08178 5.22018 5.22429 4.79616 5.54720C4.47814 5.78938 4.24339 6.19290 3.77390 6.99993C3.30441 7.80697 3.06967 8.21048 3.01735 8.60491C2.94758 9.13080 3.09118 9.66266 3.41655 10.08350C3.56506 10.27560 3.77377 10.43700 4.09770 10.63900C4.57391 10.93600 4.88032 11.44190 4.88029 12C4.88026 12.55810 4.57386 13.06390 4.09770 13.36080C3.77372 13.56290 3.56497 13.72440 3.41645 13.91650C3.09108 14.33730 2.94749 14.86910 3.01725 15.39500C3.06957 15.78940 3.30432 16.19300 3.77380 17.00000C4.24329 17.80700 4.47804 18.21060 4.79606 18.45270C5.22008 18.77560 5.75599 18.91810 6.28589 18.84890C6.52778 18.81730 6.77305 18.71860 7.11133 18.54120C7.60852 18.28040 8.20310 18.27000 8.69012 18.54900C9.17714 18.82810 9.46533 19.34430 9.48635 19.90210C9.50065 20.28150 9.53719 20.54170 9.63056 20.76540C9.83509 21.25540 10.22740 21.64480 10.72120 21.84780C11.09150 22 11.56100 22 12.50000 22C13.43900 22 13.90850 22 14.27880 21.84780C14.77260 21.64480 15.16490 21.25540 15.36940 20.76540C15.46280 20.54170 15.49940 20.28150 15.51370 19.90210C15.53470 19.34430 15.82280 18.82810 16.30980 18.54900C16.79680 18.26990 17.39140 18.28040 17.88860 18.54120C18.22690 18.71860 18.47210 18.81720 18.71400 18.84880C19.24390 18.91810 19.77980 18.77560 20.20380 18.45270C20.52190 18.21050 20.75660 17.80700 21.22610 16.99990C21.69560 16.19290 21.93030 15.78940 21.98270 15.39500C22.05240 14.86910 21.90880 14.33720 21.58350 13.91640C21.43490 13.72430 21.22620 13.56280 20.90220 13.36080C20.42610 13.06390 20.11970 12.55800 20.11970 11.99990C20.11970 11.44180 20.42610 10.93610 20.90220 10.63920C21.22630 10.43710 21.43500 10.27570 21.58360 10.08350C21.90890 9.66273 22.05250 9.13087 21.98280 8.60497C21.93040 8.21055 21.69570 7.80703 21.22620 7.00000C20.75670 6.19297 20.52200 5.78945 20.20390 5.54727C19.77990 5.22436 19.24400 5.08185 18.71410 5.15109C18.47220 5.18269 18.22690 5.28136 17.88870 5.45880C17.39150 5.71959 16.79690 5.73002 16.30990 5.45096C15.82290 5.17191 15.53470 4.65566 15.51360 4.09794C15.49930 3.71848 15.46280 3.45833 15.36940 3.23463C15.16490 2.74458 14.77260 2.35523 14.27880 2.15224ZM12.5 15C14.1695 15 15.5228 13.6569 15.5228 12C15.5228 10.3431 14.1695 9 12.5 9C10.8305 9 9.47716 10.3431 9.47716 12C9.47716 13.6569 10.8305 15 12.5 15Z" fill="#c6f5f2"/>
</svg>
